<?xml version="1.0" encoding="utf-8"?>
<!-- Generator: Adobe Illustrator 27.5.0, SVG Export Plug-In . SVG Version: 6.00 Build 0)  -->
<svg version="1.1" xmlns="http://www.w3.org/2000/svg" xmlns:xlink="http://www.w3.org/1999/xlink" x="0px" y="0px"
	 viewBox="0 0 500 500" style="enable-background:new 0 0 500 500;" xml:space="preserve">
<g id="BACKGROUND">
	<rect style="fill:#FFFFFF;" width="500" height="500"/>
</g>
<g id="OBJECTS">
	<g>
		<g>
			<path style="fill:none;stroke:#00652E;stroke-width:5.1095;stroke-linecap:round;stroke-miterlimit:10;" d="M142.373,155.32
				h18.61c8.273,0,15.681,5.125,18.597,12.867l26.377,70.02h89.221c5.698,0,10.746-3.678,12.491-9.102l12.967-40.289"/>
			<path style="fill:none;stroke:#00652E;stroke-width:5.1095;stroke-linecap:round;stroke-miterlimit:10;" d="M205.958,238.208
				l3.99,10.526c2.551,6.73,8.998,11.182,16.196,11.182h71.497"/>
			<path style="fill:none;stroke:#00652E;stroke-width:5.1095;stroke-linecap:round;stroke-miterlimit:10;" d="M242.079,267.232
				c0,3.88-3.146,7.026-7.026,7.026s-7.025-3.145-7.025-7.026s3.145-7.026,7.025-7.026S242.079,263.352,242.079,267.232z"/>
			<path style="fill:none;stroke:#00652E;stroke-width:5.1095;stroke-linecap:round;stroke-miterlimit:10;" d="M284.39,267.232
				c0,3.88-3.145,7.026-7.026,7.026c-3.88,0-7.026-3.145-7.026-7.026s3.145-7.026,7.026-7.026
				C281.245,260.207,284.39,263.352,284.39,267.232z"/>
			<g>
				<path style="fill:none;stroke:#94AA24;stroke-width:5.1095;stroke-linecap:round;stroke-miterlimit:10;" d="M256.028,202.295
					c-9.367-9.367-6.492-27.43,13.85-47.771c20.342-20.342,59.814-25.893,59.814-25.893s-5.551,39.473-25.893,59.814
					c-15.256,15.256-29.23,20.688-39.216,18.498"/>
				
					<line style="fill:none;stroke:#94AA24;stroke-width:5.1095;stroke-linecap:round;stroke-miterlimit:10;" x1="256.028" y1="202.295" x2="313.033" y2="145.291"/>
				
					<line style="fill:none;stroke:#94AA24;stroke-width:5.1095;stroke-linecap:round;stroke-miterlimit:10;" x1="270.731" y1="187.592" x2="270.731" y2="171.585"/>
				
					<line style="fill:none;stroke:#94AA24;stroke-width:5.1095;stroke-linecap:round;stroke-miterlimit:10;" x1="285.032" y1="173.291" x2="298.23" y2="173.291"/>
				
					<line style="fill:none;stroke:#94AA24;stroke-width:5.1095;stroke-linecap:round;stroke-miterlimit:10;" x1="299.033" y1="159.291" x2="299.033" y2="150.509"/>
			</g>
			<g>
				<path style="fill:none;stroke:#94AA24;stroke-width:5.1095;stroke-linecap:round;stroke-miterlimit:10;" d="M241.176,203.717
					c6.384-6.384,4.424-18.694-9.439-32.557c-13.863-13.863-40.765-17.647-40.765-17.647s3.783,26.902,17.647,40.765
					c10.397,10.398,19.921,14.099,26.726,12.607"/>
				
					<line style="fill:none;stroke:#94AA24;stroke-width:5.1095;stroke-linecap:round;stroke-miterlimit:10;" x1="241.176" y1="203.717" x2="202.326" y2="164.868"/>
				
					<line style="fill:none;stroke:#94AA24;stroke-width:5.1095;stroke-linecap:round;stroke-miterlimit:10;" x1="231.156" y1="193.697" x2="231.156" y2="182.788"/>
				
					<line style="fill:none;stroke:#94AA24;stroke-width:5.1095;stroke-linecap:round;stroke-miterlimit:10;" x1="221.409" y1="183.951" x2="212.415" y2="183.951"/>
			</g>
			
				<line style="fill:none;stroke:#00652E;stroke-width:5.1095;stroke-linecap:round;stroke-miterlimit:10;" x1="205.958" y1="238.208" x2="195.455" y2="238.208"/>
			
				<line style="fill:none;stroke:#00652E;stroke-width:5.1095;stroke-linecap:round;stroke-miterlimit:10;" x1="200.707" y1="224.268" x2="309.032" y2="224.268"/>
		</g>
		<g>
			<text transform="matrix(1 0 0 1 130.6432 335.012)" style="fill:#00652E; font-family:'Linotte-SemiBold'; font-size:44.332px;">eco market</text>
		</g>
		<g>
			
				<text transform="matrix(1 0 0 1 182.2755 367.595)" style="fill:#94AA24; font-family:'Linotte-SemiBold'; font-size:18.0322px;">fresh &amp; healthy</text>
		</g>
	</g>
</g>
</svg>
